<svg preserveAspectRatio="none" overflow="visible" style="display: block;" width="19" height="22.4545" viewBox="0 0 19 22.4545" fill="none" xmlns="http://www.w3.org/2000/svg">
<g id="Phone">
<path id="Icon" d="M17.0165 16.1631V18.5776C17.0173 18.8017 16.9732 19.0236 16.8869 19.229C16.8006 19.4344 16.6741 19.6187 16.5154 19.7702C16.3567 19.9218 16.1693 20.0371 15.9653 20.109C15.7612 20.1808 15.5451 20.2074 15.3305 20.1873C12.9508 19.9182 10.6649 19.0719 8.65654 17.7164C6.78799 16.4807 5.20379 14.832 4.01644 12.8874C2.70946 10.7877 1.8961 8.3972 1.64225 5.90945C1.62293 5.68689 1.64834 5.46257 1.71688 5.25079C1.78542 5.03901 1.89558 4.8444 2.04035 4.67936C2.18511 4.51431 2.36132 4.38244 2.55774 4.29215C2.75416 4.20186 2.96649 4.15512 3.18122 4.15491H5.50127C5.87658 4.15106 6.24043 4.28938 6.525 4.54407C6.80957 4.79877 6.99544 5.15246 7.04797 5.53923C7.14589 6.31192 7.3275 7.07061 7.58931 7.80082C7.69336 8.08889 7.71588 8.40196 7.6542 8.70294C7.59252 9.00393 7.44923 9.2802 7.24131 9.49902L6.25915 10.5212C7.36006 12.5361 8.96314 14.2045 10.8993 15.3502L11.8814 14.328C12.0917 14.1117 12.3571 13.9625 12.6463 13.8983C12.9355 13.8341 13.2364 13.8576 13.5132 13.9659C14.2148 14.2383 14.9438 14.4273 15.6863 14.5293C16.062 14.5844 16.405 14.7813 16.6503 15.0826C16.8955 15.3838 17.0259 15.7684 17.0165 16.1631Z" stroke="white" stroke-width="0.863636" stroke-linecap="round" stroke-linejoin="round"/>
</g>
</svg>
